# xmcd CD database file
#
# Track frame offsets:
#	150
#	7743
#	21898
#	24763
#	33124
#	41630
#	50407
#	67222
#	90686
#	102746
#	115281
#	122105
#	132397
#	163650
#	169457
#	182876
#	197901
#	206814
#	209369
#	220133
#
# Disc length: 3084 seconds
#
# Revision: 1
# Processed by: cddbd v1.5.2PL0 Copyright (c) Steve Scherf et al.
# Submitted via: CDex 1.70beta2
#
DISCID=280c0a14
DTITLE=Gary Husband - The Complete Diary of a Plastic Box
DYEAR=2008
DGENRE=Jazz
TTITLE0=Gary Husband - Dreamtown
TTITLE1=Gary Husband - Some Splintered Road Jazz Pt.3
TTITLE2=Gary Husband - Two Butterflies
TTITLE3=Gary Husband - Lonely Room
TTITLE4=Gary Husband - Neon
TTITLE5=Gary Husband - Christmas Mall
TTITLE6=Gary Husband - Give Us This Day
TTITLE7=Gary Husband - a) Jolt b) Peaceland
TTITLE8=Gary Husband - a) Spielzeug Soldat b) Magazine
TTITLE9=Gary Husband - Displacement
TTITLE10=Gary Husband - Nightclub 1989
TTITLE11=Gary Husband - a) Glaciers b) Rooftops Of Innsbruck
TTITLE12=Gary Husband - Some Splintered Road Jazz Pt.4 and 5
TTITLE13=Gary Husband - Showdown  
TTITLE14=Gary Husband - a) Deco b) Yesterday Story
TTITLE15=Gary Husband - a) Water Boatmen b) Savoy - Alternate Take
TTITLE16=Gary Husband - There/Not There
TTITLE17=Gary Husband - The Complaint
TTITLE18=Gary Husband - Something She Said - Alternate Take
TTITLE19=Gary Husband - (Bonus Track) With Just Heart and Soul
EXTD=YEAR: 2008
EXTT0=
EXTT1=
EXTT2=
EXTT3=
EXTT4=
EXTT5=
EXTT6=
EXTT7=
EXTT8=
EXTT9=
EXTT10=
EXTT11=
EXTT12=
EXTT13=
EXTT14=
EXTT15=
EXTT16=
EXTT17=
EXTT18=
EXTT19=
PLAYORDER=
